<?xml version="1.0" encoding="UTF-8" standalone="no"?><!DOCTYPE svg PUBLIC "-//W3C//DTD SVG 1.1//EN" "http://www.w3.org/Graphics/SVG/1.1/DTD/svg11.dtd"><svg width="100%" height="100%" viewBox="0 0 201 267" version="1.1" xmlns="http://www.w3.org/2000/svg" xmlns:xlink="http://www.w3.org/1999/xlink" xml:space="preserve" xmlns:serif="http://www.serif.com/" style="fill-rule:evenodd;clip-rule:evenodd;stroke-linejoin:round;stroke-miterlimit:2;"><g id="_12" serif:id="12"><path d="M21.005,0c14.341,0 25.295,10.107 32.861,30.32c5.42,34.103 0.508,96.944 -14.737,188.525c-3.387,14.341 -9.937,22.867 -19.648,25.577c-13.099,2.71 -19.592,0.677 -19.48,-6.098c17.504,-138.782 21.908,-215.796 13.212,-231.04c0,-4.856 2.598,-7.284 7.792,-7.284Z" style="fill:#fff;fill-rule:nonzero;"/><path d="M199.887,256.613c-0.859,5.827 -2.248,12.26 -7.623,9.316c-13.686,-7.495 -37.904,-28.097 -83.646,-27.436l-61.995,7.453c-6.324,0.565 -7.735,-4.743 -4.235,-15.922c3.388,-11.066 22.219,-27.399 47.059,-53.916c25.849,-27.595 48.945,-54.58 60.833,-74.852c11.692,-19.937 13.004,-36.466 10.826,-48.493c-2.147,-11.856 -8.392,-18.152 -20.39,-20.707c-10.826,-2.306 -26.156,-2.951 -38.747,2.074c-12.591,5.025 -21.879,9.203 -27.864,12.534c-5.985,3.332 -9.26,-2.49 -9.824,-12.992c17.051,-16.148 34.295,-21.542 52.475,-26.059c18.181,-4.517 37.657,-1.679 51.908,3.482c14.176,5.133 23.15,15.188 25.577,34.554c2.428,19.366 -6.121,42.025 -20.505,66.791c-15.516,26.714 -33.888,49.244 -50.385,65.452c-16.157,15.874 -28.171,22.772 -36.753,39.936c45.846,-5.984 75.55,6.658 89.744,13.106c17.329,7.872 25.162,14.701 23.545,25.679Z" style="fill:#fff;fill-rule:nonzero;"/></g></svg>