<?xml version="1.0" encoding="UTF-8" standalone="no"?><!DOCTYPE svg PUBLIC "-//W3C//DTD SVG 1.1//EN" "http://www.w3.org/Graphics/SVG/1.1/DTD/svg11.dtd"><svg width="100%" height="100%" viewBox="0 0 1579 417" version="1.1" xmlns="http://www.w3.org/2000/svg" xmlns:xlink="http://www.w3.org/1999/xlink" xml:space="preserve" xmlns:serif="http://www.serif.com/" style="fill-rule:evenodd;clip-rule:evenodd;stroke-linejoin:round;stroke-miterlimit:2;"><g id="Title"><rect x="273.369" y="348.986" width="15.663" height="67.681" style="fill:#fff;fill-rule:nonzero;"/><path d="M370.712,348.986l0,67.681l-12.859,-0l-33.744,-41.092l0,41.092l-15.47,-0l0,-67.681l12.956,-0l33.648,41.092l-0,-41.092l15.469,-0Z" style="fill:#fff;fill-rule:nonzero;"/><path d="M470.087,404.097l-0,12.57l-52.405,-0l0,-67.681l51.148,-0l-0,12.569l-35.581,-0l-0,14.696l31.423,0l0,12.183l-31.423,-0l-0,15.663l36.838,0Z" style="fill:#fff;fill-rule:nonzero;"/><path d="M550.22,348.986l-29.296,67.681l-15.47,-0l-29.2,-67.681l16.921,-0l20.594,48.343l20.884,-48.343l15.567,-0Z" style="fill:#fff;fill-rule:nonzero;"/><path d="M611.79,404.097l-0,12.57l-52.405,-0l0,-67.681l51.148,-0l-0,12.569l-35.581,-0l-0,14.696l31.423,0l0,12.183l-31.423,-0l-0,15.663l36.838,0Z" style="fill:#fff;fill-rule:nonzero;"/><path d="M670.942,416.667l-13.053,-18.854l-14.406,-0l-0,18.854l-15.664,-0l0,-67.681l29.297,-0c5.994,-0 11.199,0.999 15.615,2.997c4.415,1.998 7.815,4.834 10.2,8.508c2.385,3.674 3.577,8.025 3.577,13.053c0,5.028 -1.208,9.363 -3.625,13.005c-2.417,3.641 -5.85,6.429 -10.297,8.363l15.179,21.755l-16.823,-0Zm-0.29,-43.123c-0,-3.803 -1.225,-6.72 -3.674,-8.75c-2.45,-2.03 -6.027,-3.046 -10.733,-3.046l-12.762,0l-0,23.592l12.762,0c4.706,0 8.283,-1.031 10.733,-3.094c2.449,-2.063 3.674,-4.963 3.674,-8.702Z" style="fill:#fff;fill-rule:nonzero;"/><path d="M733.962,392.688l-0,23.979l-15.664,-0l0,-24.172l-26.202,-43.509l16.63,-0l18.081,30.069l18.08,-30.069l15.374,-0l-26.299,43.702Z" style="fill:#fff;fill-rule:nonzero;"/><path d="M797.755,348.986l30.746,-0c7.349,-0 13.843,1.402 19.483,4.205c5.64,2.804 10.023,6.752 13.149,11.845c3.127,5.092 4.69,11.022 4.69,17.79c-0,6.768 -1.563,12.698 -4.69,17.791c-3.126,5.092 -7.509,9.04 -13.149,11.844c-5.64,2.804 -12.134,4.206 -19.483,4.206l-30.746,-0l-0,-67.681Zm29.973,54.821c6.768,0 12.166,-1.885 16.195,-5.656c4.029,-3.771 6.043,-8.879 6.043,-15.325c-0,-6.446 -2.014,-11.554 -6.043,-15.325c-4.029,-3.771 -9.427,-5.656 -16.195,-5.656l-14.31,0l0,41.962l14.31,0Z" style="fill:#fff;fill-rule:nonzero;"/><rect x="881.176" y="348.986" width="15.663" height="67.681" style="fill:#fff;fill-rule:nonzero;"/><path d="M916.446,348.986l15.664,-0l-0,54.918l33.937,-0l-0,12.763l-49.601,-0l0,-67.681Z" style="fill:#fff;fill-rule:nonzero;"/><path d="M1030.81,404.097l-0,12.57l-52.405,-0l0,-67.681l51.148,-0l-0,12.569l-35.581,-0l0,14.696l31.423,0l0,12.183l-31.423,-0l0,15.663l36.838,0Z" style="fill:#fff;fill-rule:nonzero;"/><path d="M1108.43,416.667l-0.096,-40.609l-19.918,33.454l-7.058,-0l-19.821,-32.584l0,39.739l-14.696,-0l-0,-67.681l12.956,-0l25.332,42.059l24.945,-42.059l12.86,-0l0.193,67.681l-14.697,-0Z" style="fill:#fff;fill-rule:nonzero;"/><path d="M1204.32,416.667l-0.097,-40.609l-19.917,33.454l-7.059,-0l-19.82,-32.584l-0,39.739l-14.697,-0l0,-67.681l12.956,-0l25.332,42.059l24.946,-42.059l12.859,-0l0.193,67.681l-14.696,-0Z" style="fill:#fff;fill-rule:nonzero;"/><path d="M1283.2,402.164l-31.423,-0l-5.995,14.503l-16.05,-0l30.167,-67.681l15.47,-0l30.263,67.681l-16.437,-0l-5.995,-14.503Zm-4.931,-11.893l-10.732,-25.912l-10.732,25.912l21.464,0Z" style="fill:#fff;fill-rule:nonzero;"/><g id="DouzePoints"><path d="M1504.85,156.879c-7.447,-14.247 -11.171,-27.9 -11.171,-40.96c0,-17.053 10.038,-30.977 30.113,-41.77c3.238,-1.727 7.825,-2.59 13.762,-2.59c4.209,0.647 6.314,1.889 6.314,3.724c-0,3.345 -4.641,7.555 -13.924,12.628c-4.101,2.482 -6.152,7.933 -6.152,16.351c0,7.987 15.057,35.996 45.17,84.025c6.692,12.952 10.038,25.31 10.038,37.075c-0,42.093 -19.968,62.762 -59.903,62.007c-13.383,-0 -24.392,-4.587 -33.027,-13.761c-1.403,-1.619 -1.241,-3.427 0.486,-5.424c1.727,-1.997 3.67,-2.294 5.828,-0.891c9.606,6.692 18.403,10.038 26.39,10.038c17.377,0 26.551,-10.038 27.522,-30.113c0,-19.428 -11.71,-45.331 -35.132,-77.711l-6.314,-12.628Z" style="fill:#fff;fill-rule:nonzero;"/><path d="M1435.39,113.652c-1.619,15.758 -2.428,30.491 -2.428,44.198c1.619,49.865 8.742,74.797 21.37,74.797c11.657,0 22.774,-7.447 33.351,-22.342l4.533,9.067c-13.383,23.853 -29.249,35.779 -47.598,35.779c-21.262,0 -36.859,-17.539 -46.788,-52.617c-2.483,-10.901 -3.724,-21.802 -3.724,-32.703c0,-19.32 1.619,-37.722 4.857,-55.207c-11.657,0.755 -20.183,1.943 -25.58,3.561c-3.13,0 -4.695,-1.672 -4.695,-5.018c0,-6.692 6.53,-12.52 19.59,-17.485c4.641,-1.296 9.93,-2.267 15.866,-2.914c7.339,-26.336 18.726,-50.459 34.16,-72.369c7.987,-0.971 11.711,1.943 11.171,8.743c-4.857,22.234 -8.688,43.064 -11.495,62.492c7.772,0.216 16.784,0.756 27.037,1.619c9.175,2.159 14.679,6.368 16.514,12.628c1.727,6.368 0.378,9.498 -4.047,9.39l-42.094,-1.619Z" style="fill:#fff;fill-rule:nonzero;"/><path d="M1195.46,71.559c13.708,-0 24.177,10.469 31.409,31.408c4.209,16.837 6.314,38.154 6.314,63.95c29.357,-63.572 56.502,-95.358 81.434,-95.358c14.571,-0 24.609,7.555 30.113,22.666c3.022,9.606 1.7,25.175 -3.966,46.707c-5.667,21.533 -8.5,42.768 -8.5,63.707c0,17.485 5.451,26.227 16.352,26.227c7.339,0 14.84,-6.691 22.504,-20.075l5.018,5.019c-10.361,24.285 -23.313,36.427 -38.855,36.427c-30.221,-0 -44.468,-19.212 -42.741,-57.636c-0,-12.628 5.019,-44.845 15.056,-96.653c0,-2.482 -1.241,-3.723 -3.723,-3.723c-13.492,5.72 -28.063,22.342 -43.713,49.864c-17.161,29.574 -27.684,56.826 -31.57,81.759c-3.238,14.786 -9.498,23.583 -18.78,26.389c-9.282,2.806 -13.869,0.702 -13.761,-6.314l2.428,-68.969c0,-49.432 -4.155,-82.028 -12.466,-97.786c0,-5.073 2.482,-7.609 7.447,-7.609Z" style="fill:#fff;fill-rule:nonzero;"/><path d="M1147.7,0c9.175,1.079 13.762,9.444 13.762,25.094c-4.533,15.111 -12.089,22.666 -22.666,22.666c-7.987,-0 -12.574,-7.124 -13.761,-21.371c1.079,-17.377 8.634,-26.173 22.665,-26.389Zm43.551,219.696c-11.225,21.694 -24.393,32.541 -39.503,32.541c-21.263,-0 -36.859,-17.539 -46.789,-52.617c-2.482,-10.901 -3.723,-21.802 -3.723,-32.703c-0,-43.929 12.142,-75.714 36.427,-95.358c7.987,-0.971 11.71,1.943 11.171,8.742c-5.829,27.847 -8.743,53.804 -8.743,77.873c1.619,47.706 8.743,71.559 21.371,71.559c8.418,0 16.837,-6.368 25.256,-19.104l4.533,9.067Z" style="fill:#fff;fill-rule:nonzero;"/><path d="M1045.87,71.559c29.141,-0 44.629,26.065 46.464,78.197c1.835,68.105 -18.672,102.697 -61.521,103.776c-25.796,0 -44.522,-15.758 -56.178,-47.274c-2.699,-9.714 -4.048,-21.155 -4.048,-34.322c0,-36.805 15.866,-67.35 47.598,-91.635c8.095,-5.828 17.323,-8.742 27.685,-8.742Zm-33.837,90.339c-0,38.855 7.501,61.035 22.504,66.54c22.881,4.317 36.265,-20.183 40.15,-73.502c-1.079,-45.547 -10.253,-68.321 -27.522,-68.321c-20.183,0 -31.894,25.095 -35.132,75.283Z" style="fill:#fff;fill-rule:nonzero;"/><path d="M918.291,85.32c0,-26.443 -8.149,-39.665 -24.447,-39.665c-18.564,0 -31.084,20.939 -37.56,62.817c-0.755,9.282 -1.133,18.186 -1.133,26.713c2.051,28.71 10.199,43.065 24.446,43.065c17.485,-0 29.844,-23.26 37.075,-69.778c1.079,-7.664 1.619,-15.381 1.619,-23.152Zm-56.502,-39.179c10.793,-12.952 25.04,-20.075 42.741,-21.371c39.287,0 58.661,20.885 58.121,62.655c0,42.525 -19.751,75.93 -59.255,100.215c-6.475,3.022 -13.815,4.533 -22.018,4.533c-11.225,-0 -20.399,-3.67 -27.522,-11.009c0.863,14.894 2.428,33.782 4.695,56.664c-0.324,18.241 -7.825,28.224 -22.504,29.951c-14.355,3.67 -21.64,-31.624 -21.856,-105.881c0.971,-64.328 13.437,-109.767 37.398,-136.318c2.375,-2.375 4.803,-3.562 7.286,-3.562c3.885,0.108 5.612,3.076 5.18,8.905l-2.266,15.218Z" style="fill:#fff;fill-rule:nonzero;"/><path d="M732.594,269.884c-32.703,-0 -54.02,-13.438 -63.95,-40.313c-1.079,-5.936 -1.619,-11.225 -1.619,-15.866c0,-26.443 19.59,-47.436 58.769,-62.978c2.267,-0.971 4.534,-1.619 6.8,-1.943c-13.599,-10.577 -20.399,-22.072 -20.399,-34.484c-0,-15.866 13.33,-27.361 39.989,-34.484c5.828,-1.295 12.358,-1.943 19.589,-1.943c15.219,0.863 28.279,10.146 39.18,27.846l-11.657,5.343c-6.152,-9.606 -15.596,-14.787 -28.332,-15.542c-16.19,0.647 -25.256,5.288 -27.199,13.923c0,13.06 9.066,25.526 27.199,37.398l-0.486,11.009c-11.333,0.972 -23.205,4.965 -35.617,11.981c-21.155,11.872 -31.732,25.85 -31.732,41.932c-0,18.024 9.821,29.438 29.465,34.241c19.644,4.803 44.522,-6.611 74.635,-34.241l11.495,5.666c-24.501,34.97 -53.211,52.455 -86.13,52.455Z" style="fill:#fff;fill-rule:nonzero;"/><path d="M647.598,249.809c-0.432,4.964 -2.861,7.609 -7.286,7.933c-12.628,-7.448 -40.15,-9.768 -82.568,-6.962l-59.254,6.314c-6.045,0.54 -7.394,-3.94 -4.048,-13.438c3.238,-9.498 15.515,-24.581 36.832,-45.25c21.317,-20.669 48.812,-46.708 82.487,-78.116c-47.166,11.225 -77.522,14.544 -91.068,9.957c-13.545,-4.587 -18.645,-12.115 -15.299,-22.585c45.331,-5.073 80.113,-9.633 104.343,-13.68c24.231,-4.048 38.64,-4.102 43.227,-0.162c4.587,3.939 6.233,12.709 4.938,26.308c-39.287,29.574 -75.498,64.867 -108.634,105.882c34.107,-5.073 58.122,-5.991 72.045,-2.753c17.269,6.044 25.364,14.895 24.285,26.552Z" style="fill:#fff;fill-rule:nonzero;"/><path d="M321.859,196.868c4.101,-34.862 17.863,-69.131 41.284,-102.805c5.073,-6.8 9.66,-10.793 13.761,-11.981c1.835,-0.431 3.562,-0.647 5.181,-0.647c3.346,-0 5.019,1.673 5.019,5.018c-0.108,0.972 -0.432,2.213 -0.971,3.724l-22.99,71.559c-3.346,12.844 -5.019,24.986 -5.019,36.427c0,24.285 6.692,36.427 20.076,36.427c15.002,0 30.49,-23.421 46.464,-70.264c8.095,-48.461 16.028,-75.39 23.799,-80.787c4.21,-4.749 9.228,-7.123 15.057,-7.123c5.073,0.647 7.609,3.993 7.609,10.037c-5.073,33.783 -7.609,59.309 -7.609,76.578l-0,10.038c-0,35.402 7.123,60.927 21.37,76.578c2.806,4.749 1.134,7.663 -5.019,8.742l-3.723,0c-21.047,0 -37.183,-20.237 -48.408,-60.712c-16.19,40.475 -36.427,60.712 -60.711,60.712c-22.45,0 -37.129,-11.711 -44.037,-35.132c-1.511,-6.476 -1.888,-15.272 -1.133,-26.389Z" style="fill:#fff;fill-rule:nonzero;"/><path d="M265.195,71.559c29.141,-0 44.63,26.065 46.464,78.197c1.835,68.105 -18.672,102.697 -61.521,103.776c-25.795,0 -44.522,-15.758 -56.178,-47.274c-2.699,-9.714 -4.048,-21.155 -4.048,-34.322c0,-36.805 15.866,-67.35 47.598,-91.635c8.095,-5.828 17.323,-8.742 27.685,-8.742Zm-33.837,90.339c0,38.855 7.501,61.035 22.504,66.54c22.881,4.317 36.265,-20.183 40.151,-73.502c-1.08,-45.547 -10.254,-68.321 -27.523,-68.321c-20.183,0 -31.894,25.095 -35.132,75.283Z" style="fill:#fff;fill-rule:nonzero;"/><g id="_12" serif:id="12"><path d="M21.696,7.833c14.813,-0 26.127,10.439 33.941,31.317c5.599,35.224 0.525,100.132 -15.221,194.725c-3.499,14.813 -10.264,23.619 -20.295,26.418c-13.53,2.799 -20.236,0.7 -20.12,-6.298c18.079,-143.347 22.628,-222.893 13.647,-238.639c0,-5.016 2.683,-7.523 8.048,-7.523Z" style="fill:#fff;fill-rule:nonzero;"/><path d="M206.461,272.886c-0.887,6.018 -2.322,12.662 -7.873,9.622c-14.137,-7.741 -39.152,-29.022 -86.398,-28.338l-64.034,7.698c-6.531,0.583 -7.989,-4.899 -4.374,-16.446c3.499,-11.43 22.95,-28.3 48.607,-55.689c26.699,-28.503 50.555,-56.376 62.834,-77.314c12.076,-20.593 13.431,-37.666 11.182,-50.088c-2.218,-12.245 -8.668,-18.749 -21.061,-21.388c-11.182,-2.382 -27.016,-3.048 -40.022,2.142c-13.005,5.191 -22.598,9.506 -28.78,12.947c-6.181,3.441 -9.564,-2.572 -10.147,-13.419c17.612,-16.679 35.423,-22.251 54.201,-26.917c18.779,-4.665 38.896,-1.734 53.615,3.596c14.643,5.303 23.911,15.688 26.419,35.691c2.507,20.003 -6.323,43.407 -21.18,68.988c-16.026,27.593 -35.003,50.863 -52.042,67.604c-16.689,16.396 -29.098,23.521 -37.962,41.25c47.354,-6.182 78.035,6.877 92.696,13.537c17.899,8.131 25.99,15.184 24.319,26.524Z" style="fill:#fff;fill-rule:nonzero;"/></g></g></g></svg>